<?xml version="1.0" encoding="UTF-8" standalone="no"?>
<svg
   class="classSvg"
   xmlns="http://www.w3.org/2000/svg"
   version="1.1"
   id="svg2"
   width="666.66669"
   height="666.66669"
   viewBox="0 0 666.66669 666.66669"
   ><g
     id="g10"
     transform="matrix(1.3333333,0,0,-1.3333333,0,666.66667)"><g
       id="g12"
       transform="translate(206.2324,401.4326)"><path
         d="M 0,0 43.736,75.752 H -44.323 L -87.471,1.016 -131.207,-74.736 h 87.471 l -43.735,-75.753 -43.736,-75.752 v -1.017 h 87.471 L 0,-151.505 43.735,-75.752 h -87.471 z"
         style="fill:#FFF;fill-opacity:1;fill-rule:nonzero;stroke:none"
         id="path14" /></g><g
       id="g16"
       transform="translate(337.4395,325.6802)"><path
         d="M 0,0 H 87.472 L 43.735,75.752 0,151.505 h -87.471 l 43.736,-75.753 z"
         style="fill:#FFF;fill-opacity:1;fill-rule:nonzero;stroke:none"
         id="path18" /></g><g
       id="g20"
       transform="translate(424.9111,174.1758)"><path
         d="m 0,0 -43.736,75.751 -43.736,75.753 h -87.471 v 0 l 43.736,-75.752 43.735,-75.753 H 0 Z"
         style="fill:#FFF;fill-opacity:1;fill-rule:nonzero;stroke:none"
         id="path22" /></g><g
       id="g24"
       transform="translate(381.1758,98.4219)"><path
         d="m 0,0 -43.736,75.753 h -87.471 l 43.735,-75.752 43.735,-75.752 h 87.472 v 0.001 z"
         style="fill:#FFF;fill-opacity:1;fill-rule:nonzero;stroke:none"
         id="path26" /></g><g
       id="g28"
       transform="translate(75.0259,22.6709)"><path
         d="m 0,0 h 87.471 l 43.736,75.752 43.735,75.752 H 87.471 L 43.735,75.752 Z"
         style="fill:#FFF;fill-opacity:1;fill-rule:nonzero;stroke:none"
         id="path30" /></g></g></svg>
