<?xml version="1.0" encoding="UTF-8" standalone="no"?>
<svg
   class="classSvg"
   version="1.1"
   id="svg2"
   width="666.66669"
   height="666.66669"
   viewBox="0 0 666.66669 666.66669"
   ><g
     id="g10"
     transform="matrix(1.3333333,0,0,-1.3333333,0,666.66667)"><g
       id="g12"
       transform="translate(239.1572,250.252)"><path
         d="m 0,0 -80.674,46.579 -80.67,46.571 V 0 -93.15 l 80.67,46.574 z"
         style="fill:#FFF;fill-opacity:1;fill-rule:nonzero;stroke:none"
         id="path14" /></g><g
       id="g16"
       transform="translate(260.8437,250.2529)"><path
         d="m 0,0 80.675,-46.58 80.669,-46.571 V 0 93.15 L 80.675,46.576 Z"
         style="fill:#FFF;fill-opacity:1;fill-rule:nonzero;stroke:none"
         id="path18" /></g><g
       id="g20"
       transform="translate(331.5049,399.313)"><path
         d="M 0,0 -80.669,46.574 -161.339,0 l -80.674,-46.579 80.674,-46.578 80.67,-46.571 v 0.002 L 0,-93.152 80.674,-46.579 Z"
         style="fill:#FFF;fill-opacity:1;fill-rule:nonzero;stroke:none"
         id="path22" /></g><g
       id="g24"
       transform="translate(331.5049,193.8398)"><path
         d="M 0,0 -80.669,46.573 -161.339,0 l -80.674,-46.579 80.674,-46.578 80.67,-46.57 L 0,-93.152 80.674,-46.579 Z"
         style="fill:#FFF;fill-opacity:1;fill-rule:nonzero;stroke:none"
         id="path26" /></g></g></svg>
