<?xml version="1.0" encoding="UTF-8" standalone="no"?>
<svg
   class="classSvg"
   xmlns="http://www.w3.org/2000/svg"
   version="1.1"
   id="svg2"
   width="666.66669"
   height="666.66669"
   viewBox="0 0 666.66669 666.66669"
   ><g
     id="g10"
     transform="matrix(1.3333333,0,0,-1.3333333,0,666.66667)"><g
       id="g12"><g
         id="g14"
         clip-path="url(#clipPath18)"><g
           id="g20"><g
             id="g22" /><g
             id="g146"><g
               clip-path="url(#clipPath26)"
               id="g144"><g
                 transform="translate(476.4004,161.54)"
                 id="g30"><path
                   d="m 0,0 19.6,-33.95 h -39.201 -39.21 L -39.2,0 -19.601,33.95 Z"
                   style="fill:#FFF;fill-opacity:1;fill-rule:nonzero;stroke:none"
                   id="path28" /></g><g
                 transform="translate(437.2002,229.4404)"
                 id="g34"><path
                   d="M 0,0 19.6,-33.95 H -19.61 -58.811 L -39.21,0 l 19.6,33.95 z"
                   style="fill:#FFF;fill-opacity:1;fill-rule:nonzero;stroke:none"
                   id="path32" /></g><g
                 transform="translate(456.7998,195.4902)"
                 id="g38"><path
                   d="M 0,0 -19.6,-33.95 -39.21,-67.9 -58.81,-33.95 -78.41,0 h 39.2 z"
                   style="fill:#FFF;fill-opacity:1;fill-rule:nonzero;stroke:none"
                   id="path36" /></g><g
                 transform="translate(397.9902,297.3398)"
                 id="g42"><path
                   d="M 0,0 19.6,-33.95 H -19.601 -58.8 L -39.2,0 -19.601,33.95 Z"
                   style="fill:#FFF;fill-opacity:1;fill-rule:nonzero;stroke:none"
                   id="path40" /></g><g
                 transform="translate(417.5898,263.3901)"
                 id="g46"><path
                   d="M 0,0 -19.6,-33.95 -39.2,-67.9 -58.8,-33.95 -78.399,0 H -39.2 Z"
                   style="fill:#FFF;fill-opacity:1;fill-rule:nonzero;stroke:none"
                   id="path44" /></g><g
                 transform="translate(391.4199,161.1104)"
                 id="g50"><path
                   d="m 0,0 19.35,-33.521 h -38.71 -38.7 L -38.71,0 -19.36,33.51 Z"
                   style="fill:#FFF;fill-opacity:1;fill-rule:nonzero;stroke:none"
                   id="path48" /></g><g
                 transform="translate(358.79,365.2402)"
                 id="g54"><path
                   d="M 0,0 19.6,-33.95 H -19.6 -58.8 L -39.2,0 -19.6,33.95 Z"
                   style="fill:#FFF;fill-opacity:1;fill-rule:nonzero;stroke:none"
                   id="path52" /></g><g
                 transform="translate(378.3896,331.29)"
                 id="g58"><path
                   d="M 0,0 -19.6,-33.95 -39.199,-67.9 -58.8,-33.95 -78.399,0 h 39.2 z"
                   style="fill:#FFF;fill-opacity:1;fill-rule:nonzero;stroke:none"
                   id="path56" /></g><g
                 transform="translate(352.71,228.1396)"
                 id="g62"><path
                   d="m 0,0 19.35,-33.52 h -38.7 -38.7 L -38.7,0 -19.35,33.521 Z"
                   style="fill:#FFF;fill-opacity:1;fill-rule:nonzero;stroke:none"
                   id="path60" /></g><g
                 transform="translate(372.0596,194.6201)"
                 id="g66"><path
                   d="M 0,0 -19.35,-33.51 -38.699,-67.03 -58.05,-33.51 -77.399,0 h 38.7 z"
                   style="fill:#FFF;fill-opacity:1;fill-rule:nonzero;stroke:none"
                   id="path64" /></g><g
                 transform="translate(314.0098,295.1802)"
                 id="g70"><path
                   d="M 0,0 19.351,-33.52 H -19.35 -58.05 L -38.7,0 -19.35,33.52 Z"
                   style="fill:#FFF;fill-opacity:1;fill-rule:nonzero;stroke:none"
                   id="path68" /></g><g
                 transform="translate(333.3604,261.6602)"
                 id="g74"><path
                   d="M 0,0 -19.351,-33.521 -38.7,-67.04 -58.051,-33.521 -77.4,0 h 38.7 z"
                   style="fill:#FFF;fill-opacity:1;fill-rule:nonzero;stroke:none"
                   id="path72" /></g><g
                 transform="translate(306.3398,160.3896)"
                 id="g78"><path
                   d="M 0,0 18.94,-32.8 H -18.939 -56.81 L -37.87,0 -18.939,32.801 Z"
                   style="fill:#FFF;fill-opacity:1;fill-rule:nonzero;stroke:none"
                   id="path76" /></g><g
                 transform="translate(269.1299,365.2402)"
                 id="g82"><path
                   d="M 0,0 19.601,-33.95 0,-67.9 -19.6,-101.85 -39.2,-67.9 -58.8,-33.95 -39.2,0 -19.6,33.95 Z"
                   style="fill:#FFF;fill-opacity:1;fill-rule:nonzero;stroke:none"
                   id="path80" /></g><g
                 transform="translate(268.4697,225.9902)"
                 id="g86"><path
                   d="M 0,0 18.931,-32.8 H -18.94 -56.81 L -37.88,0 -18.94,32.8 Z"
                   style="fill:#FFF;fill-opacity:1;fill-rule:nonzero;stroke:none"
                   id="path84" /></g><g
                 transform="translate(287.4004,193.1904)"
                 id="g90"><path
                   d="m 0,0 -18.931,-32.801 -18.94,-32.8 -18.94,32.8 L -75.74,0 h 37.869 z"
                   style="fill:#FFF;fill-opacity:1;fill-rule:nonzero;stroke:none"
                   id="path88" /></g><g
                 transform="translate(230.5898,160.3896)"
                 id="g94"><path
                   d="M 0,0 18.94,-32.8 H -18.93 -56.8 L -37.87,0 -18.93,32.801 Z"
                   style="fill:#FFF;fill-opacity:1;fill-rule:nonzero;stroke:none"
                   id="path92" /></g><g
                 transform="translate(223.8301,295.1802)"
                 id="g98"><path
                   d="m 0,0 19.35,-33.52 h -38.7 -38.71 L -38.71,0 -19.35,33.52 Z"
                   style="fill:#FFF;fill-opacity:1;fill-rule:nonzero;stroke:none"
                   id="path96" /></g><g
                 transform="translate(243.1802,261.6602)"
                 id="g102"><path
                   d="M 0,0 -19.35,-33.521 -38.7,-67.04 -58.06,-33.521 -77.41,0 h 38.71 z"
                   style="fill:#FFF;fill-opacity:1;fill-rule:nonzero;stroke:none"
                   id="path100" /></g><g
                 transform="translate(185.1201,228.1396)"
                 id="g106"><path
                   d="m 0,0 19.36,-33.52 h -38.71 -38.7 L -38.7,0 -19.35,33.521 Z"
                   style="fill:#FFF;fill-opacity:1;fill-rule:nonzero;stroke:none"
                   id="path104" /></g><g
                 transform="translate(204.48,194.6201)"
                 id="g110"><path
                   d="M 0,0 -19.36,-33.51 -38.71,-67.03 -58.06,-33.51 -77.41,0 h 38.7 z"
                   style="fill:#FFF;fill-opacity:1;fill-rule:nonzero;stroke:none"
                   id="path108" /></g><g
                 transform="translate(179.1899,365.2402)"
                 id="g114"><path
                   d="M 0,0 19.6,-33.95 H -19.6 -58.81 L -39.2,0 -19.6,33.95 Z"
                   style="fill:#FFF;fill-opacity:1;fill-rule:nonzero;stroke:none"
                   id="path112" /></g><g
                 transform="translate(198.79,331.29)"
                 id="g118"><path
                   d="M 0,0 -19.6,-33.95 -39.2,-67.9 -58.8,-33.95 -78.41,0 h 39.21 z"
                   style="fill:#FFF;fill-opacity:1;fill-rule:nonzero;stroke:none"
                   id="path116" /></g><g
                 transform="translate(146.4199,161.1104)"
                 id="g122"><path
                   d="m 0,0 19.35,-33.521 h -38.7 -38.7 L -38.7,0 -19.35,33.51 Z"
                   style="fill:#FFF;fill-opacity:1;fill-rule:nonzero;stroke:none"
                   id="path120" /></g><g
                 transform="translate(139.9902,297.3398)"
                 id="g126"><path
                   d="m 0,0 19.6,-33.95 h -39.21 -39.2 l 19.6,33.95 19.6,33.95 z"
                   style="fill:#FFF;fill-opacity:1;fill-rule:nonzero;stroke:none"
                   id="path124" /></g><g
                 transform="translate(159.5898,263.3901)"
                 id="g130"><path
                   d="M 0,0 -19.6,-33.95 -39.21,-67.9 -58.81,-33.95 -78.41,0 h 39.2 z"
                   style="fill:#FFF;fill-opacity:1;fill-rule:nonzero;stroke:none"
                   id="path128" /></g><g
                 transform="translate(100.7798,229.4404)"
                 id="g134"><path
                   d="M 0,0 19.6,-33.95 H -19.6 -58.8 L -39.2,0 -19.6,33.95 Z"
                   style="fill:#FFF;fill-opacity:1;fill-rule:nonzero;stroke:none"
                   id="path132" /></g><g
                 transform="translate(120.3799,195.4902)"
                 id="g138"><path
                   d="M 0,0 -19.6,-33.95 -39.2,-67.9 -58.8,-33.95 -78.4,0 h 39.2 z"
                   style="fill:#FFF;fill-opacity:1;fill-rule:nonzero;stroke:none"
                   id="path136" /></g><g
                 transform="translate(61.5801,161.54)"
                 id="g142"><path
                   d="M 0,0 19.6,-33.95 H -19.6 -58.8 L -39.2,0 -19.6,33.95 Z"
                   style="fill:#FFF;fill-opacity:1;fill-rule:nonzero;stroke:none"
                   id="path140" /></g></g></g></g></g></g></g></svg>
